<svg
  xmlns="http://www.w3.org/2000/svg"
  width="24"
  height="24"
  viewBox="0 0 1024 1024"
  fill="none"
  stroke="currentColor"
  stroke-width="2"
  class="icon"
>
  <path d="M279.04 811.52c-43.52-2.56-76.8-38.4-76.8-81.92v-35.84H143.36v43.52c5.12 74.24 66.56 133.12 140.8 133.12h35.84v-58.88H279.04zM734.72 204.8c43.52 2.56 76.8 38.4 76.8 81.92v35.84H870.4v-43.52c-5.12-74.24-66.56-133.12-140.8-133.12h-35.84V204.8H734.72z"></path>
  <path d="M998.4 565.76c-2.56-74.24-64-130.56-138.24-130.56H581.12V163.84c0-76.8-61.44-138.24-138.24-138.24H163.84C87.04 25.6 25.6 87.04 25.6 163.84v279.04c0 76.8 61.44 138.24 138.24 138.24H435.2v279.04c0 76.8 61.44 138.24 138.24 138.24h289.28c76.8 0 138.24-61.44 138.24-138.24V573.44l-2.56-7.68zM304.64 435.2H128V153.6h171.52v46.08H184.32v64H281.6v46.08H184.32V384h120.32v51.2z m151.04 0v-125.44c0-33.28-10.24-43.52-30.72-43.52-17.92 0-28.16 7.68-43.52 23.04V435.2h-56.32V222.72h46.08l2.56 28.16h2.56c17.92-17.92 40.96-33.28 69.12-33.28 46.08 0 66.56 30.72 66.56 84.48V435.2h-56.32z m483.84 424.96c0 20.48-7.68 40.96-23.04 56.32s-35.84 23.04-56.32 23.04H573.44c-20.48 0-40.96-7.68-56.32-23.04s-23.04-35.84-23.04-56.32V573.44c35.84-15.36 64-43.52 79.36-79.36h289.28c43.52 0 79.36 35.84 79.36 79.36v286.72z"></path>
  <path d="M760.32 545.28h-46.08v61.44H588.8v179.2h43.52V768h81.92v112.64h46.08V768h81.92v17.92h46.08v-179.2h-125.44v-61.44z m-46.08 181.76h-81.92v-76.8h81.92v76.8z m128-76.8v76.8h-81.92v-76.8h81.92z"></path>
</svg>
